<?xml version="1.0" standalone="no"?><!DOCTYPE svg PUBLIC "-//W3C//DTD SVG 1.1//EN" "http://www.w3.org/Graphics/SVG/1.1/DTD/svg11.dtd"><svg t="1585899842574" class="icon" viewBox="0 0 1024 1024" version="1.1" xmlns="http://www.w3.org/2000/svg" p-id="7330" xmlns:xlink="http://www.w3.org/1999/xlink" width="200" height="200"><defs><style type="text/css"></style></defs><path d="M1024 512c0-282.752-229.248-512-512-512S0 229.248 0 512s229.248 512 512 512S1024 794.752 1024 512zM896 512c0 212.032-171.968 384-384 384s-384-171.968-384-384 171.968-384 384-384S896 299.968 896 512zM557.248 749.312C544.768 761.792 528.384 768.064 512 768.064s-32.768-6.272-45.248-18.752l-128-128C320.448 603.008 315.008 575.424 324.864 551.488 334.72 527.616 358.144 512 384 512l64 0L448 320c0-35.392 28.608-64 64-64s64 28.608 64 64l0 192 64 0c25.856 0 49.28 15.616 59.136 39.488 9.856 24 4.352 51.52-13.888 69.824L557.248 749.312z" p-id="7331"></path></svg>