<?xml version="1.0" standalone="no"?><!DOCTYPE svg PUBLIC "-//W3C//DTD SVG 1.1//EN" "http://www.w3.org/Graphics/SVG/1.1/DTD/svg11.dtd"><svg t="1585899696068" class="icon" viewBox="0 0 1024 1024" version="1.1" xmlns="http://www.w3.org/2000/svg" p-id="6611" xmlns:xlink="http://www.w3.org/1999/xlink" width="200" height="200"><defs><style type="text/css"></style></defs><path d="M512 0C229.248 0 0 229.248 0 512s229.248 512 512 512 512-229.248 512-512S794.752 0 512 0z m0 896c-212.032 0-384-171.968-384-384S299.968 128 512 128s384 171.968 384 384-171.968 384-384 384z m45.248-621.312l128 128a64.298667 64.298667 0 0 1 13.888 69.824A64.042667 64.042667 0 0 1 640 512h-64v192c0 35.392-28.608 64-64 64s-64-28.608-64-64v-192h-64a64.042667 64.042667 0 0 1-45.248-109.312l128-128A63.829333 63.829333 0 0 1 512 255.936c16.384 0 32.768 6.272 45.248 18.752z" fill="" p-id="6612"></path></svg>