<?xml version="1.0" standalone="no"?><!DOCTYPE svg PUBLIC "-//W3C//DTD SVG 1.1//EN" "http://www.w3.org/Graphics/SVG/1.1/DTD/svg11.dtd"><svg t="1567836103335" class="icon" viewBox="0 0 1025 1024" version="1.1" xmlns="http://www.w3.org/2000/svg" p-id="5333" xmlns:xlink="http://www.w3.org/1999/xlink" width="128.125" height="128"><defs><style type="text/css"></style></defs><path d="M1010.184493 915.74726l-548.623476-499.440957 25.535231-25.599229c20.895371-20.959369 32.19103-48.030553 33.918978-75.613723 0.99197-0.447987 2.015939-0.895973 2.943911-1.439957l102.972899-64.41406c13.919581-16.383507 12.927611-42.270727-2.271932-57.502268l-179.130605-179.61059c-15.199542-15.231541-40.990765-16.25551-57.342273-2.271932l-64.222066 103.26089c-0.511985 0.959971-0.99197 1.951941-1.439957 2.97591-27.487172 1.727948-54.494359 13.055607-75.389729 34.014976l-97.437065 97.693058c-20.895371 20.959369-32.19103 48.030553-33.918978 75.613723-0.99197 0.447987-2.015939 0.927972-2.97591 1.439957l-102.972899 64.41406c-13.95158 16.383507-12.927611 42.270727 2.271932 57.502268l179.130605 179.61059c15.199542 15.231541 40.990765 16.25551 57.342273 2.271932l64.222066-103.26089c0.543984-0.959971 0.99197-1.951941 1.439957-2.97591 27.487172-1.727948 54.494359-13.055607 75.389729-34.014976l28.287148-28.383145 498.096998 550.095432c14.431565 15.93552 36.702895 18.527442 49.47051 5.695828l50.366483-50.494479c12.767615-12.799614 10.207693-35.134942-5.695828-49.598506z" p-id="5334"></path></svg>