<?xml version="1.0" standalone="no"?><!DOCTYPE svg PUBLIC "-//W3C//DTD SVG 1.1//EN" "http://www.w3.org/Graphics/SVG/1.1/DTD/svg11.dtd"><svg t="1570850743960" class="icon" viewBox="0 0 1024 1024" version="1.1" xmlns="http://www.w3.org/2000/svg" p-id="2508" xmlns:xlink="http://www.w3.org/1999/xlink" width="128" height="128"><defs><style type="text/css"></style></defs><path d="M516.8 878L447 839.8l-30.6-16.7-30.6 16.7-86.9 47.3-86.7-47.3-30.6-16.7-30.6 16.7-22.6 12.3V160c0-17.7 14.3-32 32-32H672c17.7 0 32 14.3 32 32v381c0 17.7 14.3 32 32 32s32-14.3 32-32V128c0-35.3-26.2-64-58.6-64H122.9c-32.4 0-58.6 28.7-58.6 64v832l117.2-64 117.3 64 117.5-64 69.7 38.1c21.3 11.7 47.3-3.8 47.3-28.1 0.1-11.7-6.3-22.4-16.5-28z" p-id="2509"></path><path d="M801 637.6c-6.9-3.2-14.3-4.8-22-4.8-12 0-23.9 4.3-33.4 12.1l-0.9 0.7-71.5 73.1h-22.5c-26.3 0-47.6 21.4-47.6 47.6v58.8c0 26.3 21.4 47.6 47.6 47.6h22.5l72 73.4 1.2 0.9c9.2 7.3 20.8 11.3 32.7 11.3 7.2 0 14.1-1.4 20.6-4.3 17.9-7.6 29.7-23.8 31.5-43.1 0.2-1.6 0.3-3.3 0.3-5.2V683.3c-0.6-19.8-12.2-37.4-30.5-45.7z m-15.9 268.2V906.7c-0.2 2.1-1.4 3.7-3.4 4.6-1.9 0.8-3.9 0.7-5.5-0.2L699 832.2l-1-0.8c-3.4-2.7-7.4-4.4-11.6-4.9-1.3-0.2-2.3-0.3-3-0.3h-32.6c-0.5 0-1-0.5-1-1v-58.8c0-0.6 0.5-1 1-1H683.1c5.4 0 10.7-1.9 14.9-5.4l0.8-0.7 77.3-78.9c1-0.6 2-1 3.1-1 0.9 0 1.8 0.2 2.7 0.6 2.1 0.9 3.2 2.5 3.3 4.7v221.1zM934.7 770.5h-36c-13.8 0-25 11.2-25 25s11.2 25 25 25h36c13.8 0 25-11.2 25-25s-11.2-25-25-25zM911.7 638.6L886.3 664c-9.8 9.8-9.8 25.6 0 35.4s25.6 9.8 35.4 0l25.4-25.4c9.8-9.8 9.8-25.6 0-35.4s-25.6-9.8-35.4 0zM911.7 952.4L886.3 927c-9.8-9.8-9.8-25.6 0-35.4s25.6-9.8 35.4 0l25.4 25.4c9.8 9.8 9.8 25.6 0 35.4s-25.6 9.8-35.4 0z" p-id="2510"></path><path d="M416.3 619.9c-18.4 0-33.3 14.9-33.3 33.3s14.9 33.3 33.3 33.3 33.3-14.9 33.3-33.3c0-18.3-14.9-33.3-33.3-33.3zM416.3 279.4c-63.5 0-115.2 51.7-115.2 115.2 0 13 10.6 23.5 23.5 23.5 13 0 23.5-10.6 23.5-23.4 0.9-36.7 31.4-66.5 68.1-66.5 36.7 0 67.3 29.9 68.1 66.5 0 38.9-31.8 73-68.1 73-13 0-23.5 10.5-23.5 23.5v65.3c0 13 10.6 23.5 23.5 23.5 13 0 23.5-10.6 23.5-23.5v-44.2c24.8-5.2 47.6-19.7 64.5-40.9 17.5-22 27.1-49.2 27.1-76.7 0.2-63.6-51.5-115.3-115-115.3z" p-id="2511"></path></svg>