<?xml version="1.0" standalone="no"?><!DOCTYPE svg PUBLIC "-//W3C//DTD SVG 1.1//EN" "http://www.w3.org/Graphics/SVG/1.1/DTD/svg11.dtd"><svg t="1581750726219" class="icon" viewBox="0 0 1024 1024" version="1.1" xmlns="http://www.w3.org/2000/svg" p-id="8072" xmlns:xlink="http://www.w3.org/1999/xlink" width="200" height="200"><defs><style type="text/css"></style></defs><path d="M1011.2 311.466667l-221.866667-217.6c-8.533333-4.266667-17.066667-8.533333-29.866666-8.533334H264.533333c-8.533333 0-21.333333 4.266667-29.866666 12.8l-221.866667 213.333334c-8.533333 8.533333-12.8 21.333333-12.8 29.866666v85.333334c0 8.533333 4.266667 21.333333 8.533333 25.6l469.333334 512c17.066667 17.066667 42.666667 17.066667 59.733333 4.266666l4.266667-4.266666 469.333333-512c8.533333-8.533333 12.8-17.066667 8.533333-25.6V341.333333c4.266667-8.533333 0-21.333333-8.533333-29.866666zM512 721.066667L226.133333 345.6h166.4l-8.533333 34.133333 128 174.933334 128-174.933334-12.8-34.133333h166.4c4.266667 0-281.6 375.466667-281.6 375.466667z" p-id="8073"></path></svg>